<?xml version="1.0" standalone="no"?>
<!DOCTYPE svg PUBLIC "-//W3C//DTD SVG 20010904//EN"
 "http://www.w3.org/TR/2001/REC-SVG-20010904/DTD/svg10.dtd">
<svg version="1.0" xmlns="http://www.w3.org/2000/svg"
 width="512.000000pt" height="512.000000pt" viewBox="0 0 512.000000 512.000000"
 preserveAspectRatio="xMidYMid meet">

<g transform="translate(0.000000,512.000000) scale(0.100000,-0.100000)"
fill="#000000" stroke="none">
<path d="M112 5113 c-36 -7 -100 -77 -108 -117 -17 -93 -93 -11 1169 -1273
l1162 -1163 -1162 -1162 c-1264 -1265 -1186 -1180 -1168 -1275 9 -49 69 -109
118 -118 95 -18 10 -96 1275 1168 l1162 1162 1163 -1162 c1264 -1264 1179
-1186 1274 -1168 49 9 109 69 118 118 18 95 96 10 -1168 1274 l-1162 1163
1162 1163 c1035 1036 1162 1166 1168 1200 22 119 -78 216 -197 192 -27 -6
-253 -227 -1196 -1168 l-1162 -1162 -1158 1157 c-656 656 -1169 1162 -1185
1168 -28 10 -62 11 -105 3z"/>
</g>
</svg>
